<svg width="74" height="23" viewBox="0 0 74 23" fill="none" xmlns="http://www.w3.org/2000/svg">
<g filter="url(#filter0_b_608_2028)">
<rect y="0.184265" width="74" height="22" rx="11" fill="#F3F4F6" fill-opacity="0.5"/>
<path d="M10.772 15.1843V8.02027H8.324V6.78426H14.768V8.02027H12.308V15.1843H10.772ZM18.3418 15.1843L15.2698 6.78426H16.9138L19.2898 13.6123L21.6778 6.78426H23.2978L20.2258 15.1843H18.3418ZM30.0238 15.3283C29.4078 15.3283 28.8638 15.2243 28.3918 15.0163C27.9198 14.8003 27.5478 14.4963 27.2758 14.1043C27.0038 13.7043 26.8638 13.2203 26.8558 12.6523H28.4758C28.4918 13.0443 28.6318 13.3763 28.8958 13.6483C29.1678 13.9123 29.5398 14.0443 30.0118 14.0443C30.4198 14.0443 30.7438 13.9483 30.9838 13.7563C31.2238 13.5563 31.3438 13.2923 31.3438 12.9643C31.3438 12.6203 31.2358 12.3523 31.0198 12.1603C30.8118 11.9683 30.5318 11.8123 30.1798 11.6923C29.8278 11.5723 29.4518 11.4443 29.0518 11.3083C28.4038 11.0843 27.9078 10.7963 27.5638 10.4443C27.2278 10.0923 27.0598 9.62426 27.0598 9.04026C27.0518 8.54427 27.1678 8.12027 27.4078 7.76826C27.6558 7.40826 27.9918 7.13226 28.4158 6.94026C28.8398 6.74026 29.3278 6.64026 29.8798 6.64026C30.4398 6.64026 30.9318 6.74026 31.3558 6.94026C31.7878 7.14026 32.1238 7.42026 32.3638 7.78026C32.6118 8.14026 32.7438 8.56826 32.7598 9.06426H31.1158C31.1078 8.76826 30.9918 8.50826 30.7678 8.28426C30.5518 8.05226 30.2478 7.93626 29.8558 7.93626C29.5198 7.92826 29.2358 8.01226 29.0038 8.18827C28.7798 8.35626 28.6678 8.60426 28.6678 8.93226C28.6678 9.21226 28.7558 9.43626 28.9318 9.60426C29.1078 9.76426 29.3478 9.90026 29.6518 10.0123C29.9558 10.1243 30.3038 10.2443 30.6958 10.3723C31.1118 10.5163 31.4918 10.6843 31.8358 10.8763C32.1798 11.0683 32.4558 11.3243 32.6638 11.6443C32.8718 11.9563 32.9758 12.3603 32.9758 12.8563C32.9758 13.2963 32.8638 13.7043 32.6398 14.0803C32.4158 14.4563 32.0838 14.7603 31.6438 14.9923C31.2038 15.2163 30.6638 15.3283 30.0238 15.3283ZM34.316 15.1843V6.78426H39.8V8.02027H35.852V10.3243H39.44V11.5243H35.852V13.9483H39.8V15.1843H34.316ZM41.2535 15.1843V6.78426H44.3375C45.0095 6.78426 45.5615 6.90026 45.9935 7.13227C46.4335 7.35627 46.7615 7.66426 46.9775 8.05626C47.1935 8.44026 47.3015 8.86827 47.3015 9.34026C47.3015 9.85227 47.1655 10.3203 46.8935 10.7443C46.6295 11.1683 46.2135 11.4763 45.6455 11.6683L47.3855 15.1843H45.6215L44.0615 11.8723H42.7895V15.1843H41.2535ZM42.7895 10.7443H44.2415C44.7535 10.7443 45.1295 10.6203 45.3695 10.3723C45.6095 10.1243 45.7295 9.79627 45.7295 9.38827C45.7295 8.98826 45.6095 8.66826 45.3695 8.42826C45.1375 8.18826 44.7575 8.06826 44.2295 8.06826H42.7895V10.7443ZM48.7301 15.1843V6.78426H50.2661V15.1843H48.7301ZM51.8941 15.1843V6.78426H57.3781V8.02027H53.4301V10.3243H57.0181V11.5243H53.4301V13.9483H57.3781V15.1843H51.8941ZM61.6996 15.3283C61.0836 15.3283 60.5396 15.2243 60.0676 15.0163C59.5956 14.8003 59.2236 14.4963 58.9516 14.1043C58.6796 13.7043 58.5396 13.2203 58.5316 12.6523H60.1516C60.1676 13.0443 60.3076 13.3763 60.5716 13.6483C60.8436 13.9123 61.2156 14.0443 61.6876 14.0443C62.0956 14.0443 62.4196 13.9483 62.6596 13.7563C62.8996 13.5563 63.0196 13.2923 63.0196 12.9643C63.0196 12.6203 62.9116 12.3523 62.6956 12.1603C62.4876 11.9683 62.2076 11.8123 61.8556 11.6923C61.5036 11.5723 61.1276 11.4443 60.7276 11.3083C60.0796 11.0843 59.5836 10.7963 59.2396 10.4443C58.9036 10.0923 58.7356 9.62426 58.7356 9.04026C58.7276 8.54427 58.8436 8.12027 59.0836 7.76826C59.3316 7.40826 59.6676 7.13226 60.0916 6.94026C60.5156 6.74026 61.0036 6.64026 61.5556 6.64026C62.1156 6.64026 62.6076 6.74026 63.0316 6.94026C63.4636 7.14026 63.7996 7.42026 64.0396 7.78026C64.2876 8.14026 64.4196 8.56826 64.4356 9.06426H62.7916C62.7836 8.76826 62.6676 8.50826 62.4436 8.28426C62.2276 8.05226 61.9236 7.93626 61.5316 7.93626C61.1956 7.92826 60.9116 8.01226 60.6796 8.18827C60.4556 8.35626 60.3436 8.60426 60.3436 8.93226C60.3436 9.21226 60.4316 9.43626 60.6076 9.60426C60.7836 9.76426 61.0236 9.90026 61.3276 10.0123C61.6316 10.1243 61.9796 10.2443 62.3716 10.3723C62.7876 10.5163 63.1676 10.6843 63.5116 10.8763C63.8556 11.0683 64.1316 11.3243 64.3396 11.6443C64.5476 11.9563 64.6516 12.3603 64.6516 12.8563C64.6516 13.2963 64.5396 13.7043 64.3156 14.0803C64.0916 14.4563 63.7596 14.7603 63.3196 14.9923C62.8796 15.2163 62.3396 15.3283 61.6996 15.3283Z" fill="#111827"/>
</g>
<defs>
<filter id="filter0_b_608_2028" x="-2" y="-1.81573" width="78" height="26" filterUnits="userSpaceOnUse" color-interpolation-filters="sRGB">
<feFlood flood-opacity="0" result="BackgroundImageFix"/>
<feGaussianBlur in="BackgroundImageFix" stdDeviation="1"/>
<feComposite in2="SourceAlpha" operator="in" result="effect1_backgroundBlur_608_2028"/>
<feBlend mode="normal" in="SourceGraphic" in2="effect1_backgroundBlur_608_2028" result="shape"/>
</filter>
</defs>
</svg>
